<svg width="80" height="80" viewBox="0 0 80 80" fill="none" xmlns="http://www.w3.org/2000/svg">
<path d="M70.9604 39.2728L70.2301 39.9875L70.9604 40.7022L78.1454 47.7341L78.1513 47.7399L78.1573 47.7456C79.7196 49.2246 78.9867 51.8617 76.946 52.3498L76.9386 52.3516L76.9313 52.3534L67.1422 54.8519L66.1462 55.1061L66.4277 56.0947L69.186 65.7801C69.1863 65.7809 69.1865 65.7817 69.1867 65.7825C69.7542 67.8178 67.8192 69.7525 65.7854 69.1841C65.785 69.184 65.7845 69.1839 65.7841 69.1837L56.102 66.4245L55.1131 66.1427L54.8589 67.1391L52.3614 76.9314L52.3596 76.9388L52.3578 76.9462C51.8663 79.0031 49.1748 79.689 47.7631 78.1657L47.754 78.1559L47.7446 78.1463L40.715 70.9586L40.0001 70.2276L39.2852 70.9586L32.2553 78.1462L32.2495 78.1522L32.2438 78.1582C30.7906 79.6944 28.1423 79.0395 27.642 76.9462L27.6403 76.9388L27.6384 76.9314L25.1409 67.1391L24.8868 66.1427L23.8979 66.4245L14.2158 69.1837C14.215 69.1839 14.2143 69.1841 14.2136 69.1843C12.1803 69.7518 10.2455 67.8177 10.8132 65.7822C10.8134 65.7815 10.8136 65.7808 10.8138 65.7801L13.5721 56.0947L13.8536 55.1061L12.8576 54.8519L3.06855 52.3534L3.06121 52.3515L3.05385 52.3498C1.0137 51.8619 0.279707 49.225 1.84248 47.7456L1.84851 47.7399L1.85444 47.7341L9.03961 40.7022L9.76987 39.9875L9.03962 39.2728L1.85445 32.2408L1.8485 32.235L1.84247 32.2293C0.280244 30.7504 1.01316 28.1132 3.05396 27.6253L3.06134 27.6235L3.06871 27.6216L12.8578 25.1232L13.8538 24.869L13.5723 23.8804L10.814 14.195C10.8138 14.1943 10.8136 14.1935 10.8134 14.1928C10.2457 12.1576 12.18 10.223 14.2138 10.7907C14.2145 10.7909 14.2152 10.7911 14.2159 10.7913L23.8982 13.5505L24.8871 13.8323L25.1412 12.8359L27.6387 3.04361L27.6406 3.03627L27.6424 3.0289C28.1235 1.01544 30.8088 0.299566 32.2441 1.81682L32.244 1.81688L32.253 1.82616L39.2826 9.06694L40.0001 9.80599L40.7176 9.06694L47.7473 1.82601L47.7473 1.82607L47.7562 1.81667C49.2034 0.28691 51.8807 1.03174 52.358 3.02877L52.3597 3.03612L52.3616 3.04345L54.8591 12.8358L55.1132 13.8322L56.1021 13.5504L65.7842 10.7912C65.7849 10.791 65.7855 10.7908 65.7861 10.7907C67.8193 10.2229 69.7542 12.1567 69.187 14.192C69.1867 14.193 69.1865 14.1939 69.1862 14.1948L66.4279 23.8802L66.1464 24.8688L67.1424 25.123L76.9314 27.6215L76.9388 27.6234L76.9462 27.6251C78.9863 28.113 79.7203 30.7499 78.1575 32.2293L78.1515 32.235L78.1456 32.2408L70.9604 39.2728Z" fill="#2ED573" fill-opacity="0.22" stroke="#FF6348" stroke-width="2"/>
</svg>
