<svg width="200" height="297" viewBox="0 0 200 297" fill="none" xmlns="http://www.w3.org/2000/svg">
<circle cx="3.16829" cy="67.1683" r="3.16829" fill="#2C3E50" fill-opacity="0.52"/>
<circle cx="24.8938" cy="67.1683" r="3.16829" fill="#2C3E50" fill-opacity="0.52"/>
<circle cx="48.4298" cy="67.1683" r="3.16829" fill="#2C3E50" fill-opacity="0.52"/>
<circle cx="72.8702" cy="67.1683" r="3.16829" fill="#2C3E50" fill-opacity="0.52"/>
<circle cx="99.1215" cy="67.1683" r="3.16829" fill="#2C3E50" fill-opacity="0.52"/>
<circle cx="126.279" cy="67.1683" r="3.16829" fill="#2C3E50" fill-opacity="0.52"/>
<circle cx="150.719" cy="67.1683" r="3.16829" fill="#2C3E50" fill-opacity="0.52"/>
<circle cx="172.446" cy="67.1683" r="3.16829" fill="#2C3E50" fill-opacity="0.52"/>
<circle cx="195.982" cy="67.1683" r="3.16829" fill="#2C3E50" fill-opacity="0.52"/>
<circle cx="3.16829" cy="87.9876" r="3.16829" fill="#2C3E50" fill-opacity="0.52"/>
<circle cx="24.8938" cy="87.9876" r="3.16829" fill="#2C3E50" fill-opacity="0.52"/>
<circle cx="48.4298" cy="87.9876" r="3.16829" fill="#2C3E50" fill-opacity="0.52"/>
<circle cx="72.8702" cy="87.9876" r="3.16829" fill="#2C3E50" fill-opacity="0.52"/>
<circle cx="99.1215" cy="87.9876" r="3.16829" fill="#2C3E50" fill-opacity="0.52"/>
<circle cx="126.279" cy="87.9876" r="3.16829" fill="#2C3E50" fill-opacity="0.52"/>
<circle cx="150.719" cy="87.9876" r="3.16829" fill="#2C3E50" fill-opacity="0.52"/>
<circle cx="172.446" cy="87.9876" r="3.16829" fill="#2C3E50" fill-opacity="0.52"/>
<circle cx="195.982" cy="87.9876" r="3.16829" fill="#2C3E50" fill-opacity="0.52"/>
<circle cx="3.16829" cy="108.807" r="3.16829" fill="#2C3E50" fill-opacity="0.52"/>
<circle cx="24.8938" cy="108.807" r="3.16829" fill="#2C3E50" fill-opacity="0.52"/>
<circle cx="48.4298" cy="108.807" r="3.16829" fill="#2C3E50" fill-opacity="0.52"/>
<circle cx="72.8702" cy="108.807" r="3.16829" fill="#2C3E50" fill-opacity="0.52"/>
<circle cx="99.1215" cy="108.807" r="3.16829" fill="#2C3E50" fill-opacity="0.52"/>
<circle cx="126.279" cy="108.807" r="3.16829" fill="#2C3E50" fill-opacity="0.52"/>
<circle cx="150.719" cy="108.807" r="3.16829" fill="#2C3E50" fill-opacity="0.52"/>
<circle cx="172.446" cy="108.807" r="3.16829" fill="#2C3E50" fill-opacity="0.52"/>
<circle cx="195.982" cy="108.807" r="3.16829" fill="#2C3E50" fill-opacity="0.52"/>
<circle cx="3.16829" cy="130.535" r="3.16829" fill="#2C3E50" fill-opacity="0.52"/>
<circle cx="24.8938" cy="130.535" r="3.16829" fill="#2C3E50" fill-opacity="0.52"/>
<circle cx="48.4298" cy="130.535" r="3.16829" fill="#2C3E50" fill-opacity="0.52"/>
<circle cx="72.8702" cy="130.535" r="3.16829" fill="#2C3E50" fill-opacity="0.52"/>
<circle cx="99.1215" cy="130.535" r="3.16829" fill="#2C3E50" fill-opacity="0.52"/>
<circle cx="126.279" cy="130.535" r="3.16829" fill="#2C3E50" fill-opacity="0.52"/>
<circle cx="150.719" cy="130.535" r="3.16829" fill="#2C3E50" fill-opacity="0.52"/>
<circle cx="172.446" cy="130.535" r="3.16829" fill="#2C3E50" fill-opacity="0.52"/>
<circle cx="195.982" cy="130.535" r="3.16829" fill="#2C3E50" fill-opacity="0.52"/>
<circle cx="3.16829" cy="3.16829" r="3.16829" fill="#2C3E50" fill-opacity="0.52"/>
<circle cx="24.8938" cy="3.16829" r="3.16829" fill="#2C3E50" fill-opacity="0.52"/>
<circle cx="48.4298" cy="3.16829" r="3.16829" fill="#2C3E50" fill-opacity="0.52"/>
<circle cx="72.8702" cy="3.16829" r="3.16829" fill="#2C3E50" fill-opacity="0.52"/>
<circle cx="99.1215" cy="3.16829" r="3.16829" fill="#2C3E50" fill-opacity="0.52"/>
<circle cx="126.279" cy="3.16829" r="3.16829" fill="#2C3E50" fill-opacity="0.52"/>
<circle cx="150.719" cy="3.16829" r="3.16829" fill="#2C3E50" fill-opacity="0.52"/>
<circle cx="172.446" cy="3.16829" r="3.16829" fill="#2C3E50" fill-opacity="0.52"/>
<circle cx="195.982" cy="3.16829" r="3.16829" fill="#2C3E50" fill-opacity="0.52"/>
<circle cx="3.16829" cy="23.9876" r="3.16829" fill="#2C3E50" fill-opacity="0.52"/>
<circle cx="24.8938" cy="23.9876" r="3.16829" fill="#2C3E50" fill-opacity="0.52"/>
<circle cx="48.4298" cy="23.9876" r="3.16829" fill="#2C3E50" fill-opacity="0.52"/>
<circle cx="72.8702" cy="23.9876" r="3.16829" fill="#2C3E50" fill-opacity="0.52"/>
<circle cx="99.1215" cy="23.9876" r="3.16829" fill="#2C3E50" fill-opacity="0.52"/>
<circle cx="126.279" cy="23.9876" r="3.16829" fill="#2C3E50" fill-opacity="0.52"/>
<circle cx="150.719" cy="23.9876" r="3.16829" fill="#2C3E50" fill-opacity="0.52"/>
<circle cx="172.446" cy="23.9876" r="3.16829" fill="#2C3E50" fill-opacity="0.52"/>
<circle cx="195.982" cy="23.9876" r="3.16829" fill="#2C3E50" fill-opacity="0.52"/>
<circle cx="3.16829" cy="44.807" r="3.16829" fill="#2C3E50" fill-opacity="0.52"/>
<circle cx="24.8938" cy="44.807" r="3.16829" fill="#2C3E50" fill-opacity="0.52"/>
<circle cx="48.4298" cy="44.807" r="3.16829" fill="#2C3E50" fill-opacity="0.52"/>
<circle cx="72.8702" cy="44.807" r="3.16829" fill="#2C3E50" fill-opacity="0.52"/>
<circle cx="99.1215" cy="44.807" r="3.16829" fill="#2C3E50" fill-opacity="0.52"/>
<circle cx="126.279" cy="44.807" r="3.16829" fill="#2C3E50" fill-opacity="0.52"/>
<circle cx="150.719" cy="44.807" r="3.16829" fill="#2C3E50" fill-opacity="0.52"/>
<circle cx="172.446" cy="44.807" r="3.16829" fill="#2C3E50" fill-opacity="0.52"/>
<circle cx="195.982" cy="44.807" r="3.16829" fill="#2C3E50" fill-opacity="0.52"/>
<circle cx="3.16829" cy="153.162" r="3.16829" fill="#2C3E50" fill-opacity="0.52"/>
<circle cx="24.8938" cy="153.162" r="3.16829" fill="#2C3E50" fill-opacity="0.52"/>
<circle cx="48.4298" cy="153.162" r="3.16829" fill="#2C3E50" fill-opacity="0.52"/>
<circle cx="72.8702" cy="153.162" r="3.16829" fill="#2C3E50" fill-opacity="0.52"/>
<circle cx="99.1215" cy="153.162" r="3.16829" fill="#2C3E50" fill-opacity="0.52"/>
<circle cx="126.279" cy="153.162" r="3.16829" fill="#2C3E50" fill-opacity="0.52"/>
<circle cx="150.719" cy="153.162" r="3.16829" fill="#2C3E50" fill-opacity="0.52"/>
<circle cx="172.446" cy="153.162" r="3.16829" fill="#2C3E50" fill-opacity="0.52"/>
<circle cx="195.982" cy="153.162" r="3.16829" fill="#2C3E50" fill-opacity="0.52"/>
<circle cx="3.16829" cy="173.982" r="3.16829" fill="#2C3E50" fill-opacity="0.52"/>
<circle cx="24.8938" cy="173.982" r="3.16829" fill="#2C3E50" fill-opacity="0.52"/>
<circle cx="48.4298" cy="173.982" r="3.16829" fill="#2C3E50" fill-opacity="0.52"/>
<circle cx="72.8702" cy="173.982" r="3.16829" fill="#2C3E50" fill-opacity="0.52"/>
<circle cx="99.1215" cy="173.982" r="3.16829" fill="#2C3E50" fill-opacity="0.52"/>
<circle cx="126.279" cy="173.982" r="3.16829" fill="#2C3E50" fill-opacity="0.52"/>
<circle cx="150.719" cy="173.982" r="3.16829" fill="#2C3E50" fill-opacity="0.52"/>
<circle cx="172.446" cy="173.982" r="3.16829" fill="#2C3E50" fill-opacity="0.52"/>
<circle cx="195.982" cy="173.982" r="3.16829" fill="#2C3E50" fill-opacity="0.52"/>
<circle cx="3.16829" cy="194.801" r="3.16829" fill="#2C3E50" fill-opacity="0.52"/>
<circle cx="24.8938" cy="194.801" r="3.16829" fill="#2C3E50" fill-opacity="0.52"/>
<circle cx="48.4298" cy="194.801" r="3.16829" fill="#2C3E50" fill-opacity="0.52"/>
<circle cx="72.8702" cy="194.801" r="3.16829" fill="#2C3E50" fill-opacity="0.52"/>
<circle cx="99.1215" cy="194.801" r="3.16829" fill="#2C3E50" fill-opacity="0.52"/>
<circle cx="126.279" cy="194.801" r="3.16829" fill="#2C3E50" fill-opacity="0.52"/>
<circle cx="150.719" cy="194.801" r="3.16829" fill="#2C3E50" fill-opacity="0.52"/>
<circle cx="172.446" cy="194.801" r="3.16829" fill="#2C3E50" fill-opacity="0.52"/>
<circle cx="195.982" cy="194.801" r="3.16829" fill="#2C3E50" fill-opacity="0.52"/>
<circle cx="3.16829" cy="215.62" r="3.16829" fill="#2C3E50" fill-opacity="0.52"/>
<circle cx="24.8938" cy="215.62" r="3.16829" fill="#2C3E50" fill-opacity="0.52"/>
<circle cx="48.4298" cy="215.62" r="3.16829" fill="#2C3E50" fill-opacity="0.52"/>
<circle cx="72.8702" cy="215.62" r="3.16829" fill="#2C3E50" fill-opacity="0.52"/>
<circle cx="99.1215" cy="215.62" r="3.16829" fill="#2C3E50" fill-opacity="0.52"/>
<circle cx="126.279" cy="215.62" r="3.16829" fill="#2C3E50" fill-opacity="0.52"/>
<circle cx="150.719" cy="215.62" r="3.16829" fill="#2C3E50" fill-opacity="0.52"/>
<circle cx="172.446" cy="215.62" r="3.16829" fill="#2C3E50" fill-opacity="0.52"/>
<circle cx="195.982" cy="215.62" r="3.16829" fill="#2C3E50" fill-opacity="0.52"/>
<circle cx="3.16829" cy="235.539" r="3.16829" fill="#2C3E50" fill-opacity="0.52"/>
<circle cx="24.8938" cy="235.539" r="3.16829" fill="#2C3E50" fill-opacity="0.52"/>
<circle cx="48.4298" cy="235.539" r="3.16829" fill="#2C3E50" fill-opacity="0.52"/>
<circle cx="72.8702" cy="235.539" r="3.16829" fill="#2C3E50" fill-opacity="0.52"/>
<circle cx="99.1215" cy="235.539" r="3.16829" fill="#2C3E50" fill-opacity="0.52"/>
<circle cx="126.279" cy="235.539" r="3.16829" fill="#2C3E50" fill-opacity="0.52"/>
<circle cx="150.719" cy="235.539" r="3.16829" fill="#2C3E50" fill-opacity="0.52"/>
<circle cx="172.446" cy="235.539" r="3.16829" fill="#2C3E50" fill-opacity="0.52"/>
<circle cx="195.982" cy="235.539" r="3.16829" fill="#2C3E50" fill-opacity="0.52"/>
<circle cx="3.16829" cy="253.641" r="3.16829" fill="#2C3E50" fill-opacity="0.52"/>
<circle cx="24.8938" cy="253.641" r="3.16829" fill="#2C3E50" fill-opacity="0.52"/>
<circle cx="48.4298" cy="253.641" r="3.16829" fill="#2C3E50" fill-opacity="0.52"/>
<circle cx="72.8702" cy="253.641" r="3.16829" fill="#2C3E50" fill-opacity="0.52"/>
<circle cx="99.1215" cy="253.641" r="3.16829" fill="#2C3E50" fill-opacity="0.52"/>
<circle cx="126.279" cy="253.641" r="3.16829" fill="#2C3E50" fill-opacity="0.52"/>
<circle cx="150.719" cy="253.641" r="3.16829" fill="#2C3E50" fill-opacity="0.52"/>
<circle cx="172.446" cy="253.641" r="3.16829" fill="#2C3E50" fill-opacity="0.52"/>
<circle cx="195.982" cy="253.641" r="3.16829" fill="#2C3E50" fill-opacity="0.52"/>
<circle cx="3.16829" cy="273.56" r="3.16829" fill="#2C3E50" fill-opacity="0.52"/>
<circle cx="24.8938" cy="273.56" r="3.16829" fill="#2C3E50" fill-opacity="0.52"/>
<circle cx="48.4298" cy="273.56" r="3.16829" fill="#2C3E50" fill-opacity="0.52"/>
<circle cx="72.8702" cy="273.56" r="3.16829" fill="#2C3E50" fill-opacity="0.52"/>
<circle cx="99.1215" cy="273.56" r="3.16829" fill="#2C3E50" fill-opacity="0.52"/>
<circle cx="126.279" cy="273.56" r="3.16829" fill="#2C3E50" fill-opacity="0.52"/>
<circle cx="150.719" cy="273.56" r="3.16829" fill="#2C3E50" fill-opacity="0.52"/>
<circle cx="172.446" cy="273.56" r="3.16829" fill="#2C3E50" fill-opacity="0.52"/>
<circle cx="195.982" cy="273.56" r="3.16829" fill="#2C3E50" fill-opacity="0.52"/>
<circle cx="3.16829" cy="293.477" r="3.16829" fill="#2C3E50" fill-opacity="0.52"/>
<circle cx="24.8938" cy="293.477" r="3.16829" fill="#2C3E50" fill-opacity="0.52"/>
<circle cx="48.4298" cy="293.477" r="3.16829" fill="#2C3E50" fill-opacity="0.52"/>
<circle cx="72.8702" cy="293.477" r="3.16829" fill="#2C3E50" fill-opacity="0.52"/>
<circle cx="99.1215" cy="293.477" r="3.16829" fill="#2C3E50" fill-opacity="0.52"/>
<circle cx="126.279" cy="293.477" r="3.16829" fill="#2C3E50" fill-opacity="0.52"/>
<circle cx="150.719" cy="293.477" r="3.16829" fill="#2C3E50" fill-opacity="0.52"/>
<circle cx="172.446" cy="293.477" r="3.16829" fill="#2C3E50" fill-opacity="0.52"/>
<circle cx="195.982" cy="293.477" r="3.16829" fill="#2C3E50" fill-opacity="0.52"/>
</svg>
