<svg width="159" height="163" viewBox="0 0 159 163" fill="none" xmlns="http://www.w3.org/2000/svg">
<g opacity="0.6">
<line opacity="0.5" y1="-3.5" x2="145.177" y2="-3.5" transform="matrix(0.83997 0.542632 -0.545201 0.838305 20.0261 38.1777)" stroke="#FF6348" stroke-width="7"/>
<line y1="-3.5" x2="143.746" y2="-3.5" transform="matrix(0.83961 0.54319 -0.545801 0.837915 26.6202 29.2073)" stroke="#FF6348" stroke-width="7"/>
<line opacity="0.5" y1="-3.5" x2="140.989" y2="-3.5" transform="matrix(0.833509 0.552506 -0.555828 0.831298 33.2146 20.2371)" stroke="#FF6348" stroke-width="7"/>
<line y1="-3.5" x2="135.399" y2="-3.5" transform="matrix(0.830052 0.557686 -0.561399 0.827545 42.0388 13.0645)" stroke="#FF6348" stroke-width="7"/>
<line opacity="0.5" y1="-3.5" x2="119.435" y2="-3.5" transform="matrix(0.832077 0.554659 -0.558145 0.829744 53.8434 9.58643)" stroke="#FF6348" stroke-width="7"/>
<line y1="-3.5" x2="97.8811" y2="-3.5" transform="matrix(0.830005 0.557755 -0.561474 0.827494 68.5454 6.69824)" stroke="#FF6348" stroke-width="7"/>
<line opacity="0.5" y1="-3.5" x2="70.4946" y2="-3.5" transform="matrix(0.833509 0.552506 -0.555828 0.831298 85.0872 6.41064)" stroke="#FF6348" stroke-width="7"/>
<line y1="-3.5" x2="145.109" y2="-3.5" transform="matrix(0.838195 0.545371 0.535437 -0.844575 18.0233 41.8027)" stroke="#FF6348" stroke-width="7"/>
<line opacity="0.5" y1="-3.5" x2="143.679" y2="-3.5" transform="matrix(0.838521 0.544869 0.534766 -0.845 12.015 52.6775)" stroke="#FF6348" stroke-width="7"/>
<line y1="-3.5" x2="140.909" y2="-3.5" transform="matrix(0.843945 0.53643 0.523453 -0.852055 7.26031 64.2488)" stroke="#FF6348" stroke-width="7"/>
<line opacity="0.5" y1="-3.5" x2="135.295" y2="-3.5" transform="matrix(0.846275 0.532746 0.516855 -0.856073 4.427 75.3079)" stroke="#FF6348" stroke-width="7"/>
<line y1="-3.5" x2="119.364" y2="-3.5" transform="matrix(0.845193 0.534462 0.520813 -0.853671 5.35461 88.4556)" stroke="#FF6348" stroke-width="7"/>
<line opacity="0.5" y1="-3.5" x2="97.8192" y2="-3.5" transform="matrix(0.846982 0.531621 0.517002 -0.855984 8.78955 102.996)" stroke="#FF6348" stroke-width="7"/>
<line y1="-3.5" x2="70.4546" y2="-3.5" transform="matrix(0.843945 0.53643 0.523453 -0.852055 14.1755 118.617)" stroke="#FF6348" stroke-width="7"/>
</g>
</svg>
