<svg width="158" height="162" viewBox="0 0 158 162" fill="none" xmlns="http://www.w3.org/2000/svg">
<g opacity="0.6">
<line opacity="0.5" y1="-3.5" x2="145.177" y2="-3.5" transform="matrix(0.83997 0.542632 -0.545201 0.838305 19.5991 37.7666)" stroke="#2ED573" stroke-width="7"/>
<line y1="-3.5" x2="143.746" y2="-3.5" transform="matrix(0.83961 0.54319 -0.545801 0.837915 26.1932 28.7969)" stroke="#2ED573" stroke-width="7"/>
<line opacity="0.5" y1="-3.5" x2="140.989" y2="-3.5" transform="matrix(0.833509 0.552506 -0.555828 0.831298 32.7876 19.8262)" stroke="#2ED573" stroke-width="7"/>
<line y1="-3.5" x2="135.399" y2="-3.5" transform="matrix(0.830052 0.557686 -0.561399 0.827545 41.6118 12.6533)" stroke="#2ED573" stroke-width="7"/>
<line opacity="0.5" y1="-3.5" x2="119.435" y2="-3.5" transform="matrix(0.832077 0.554659 -0.558145 0.829744 53.4164 9.17578)" stroke="#2ED573" stroke-width="7"/>
<line y1="-3.5" x2="97.8811" y2="-3.5" transform="matrix(0.830005 0.557755 -0.561474 0.827494 68.1184 6.28711)" stroke="#2ED573" stroke-width="7"/>
<line opacity="0.5" y1="-3.5" x2="70.4946" y2="-3.5" transform="matrix(0.833509 0.552506 -0.555828 0.831298 84.6602 6)" stroke="#2ED573" stroke-width="7"/>
<line y1="-3.5" x2="145.109" y2="-3.5" transform="matrix(0.838195 0.545371 0.535437 -0.844575 17.5963 41.3926)" stroke="#2ED573" stroke-width="7"/>
<line opacity="0.5" y1="-3.5" x2="143.679" y2="-3.5" transform="matrix(0.838521 0.544869 0.534766 -0.845 11.588 52.2666)" stroke="#2ED573" stroke-width="7"/>
<line y1="-3.5" x2="140.909" y2="-3.5" transform="matrix(0.843945 0.53643 0.523453 -0.852055 6.83331 63.8379)" stroke="#2ED573" stroke-width="7"/>
<line opacity="0.5" y1="-3.5" x2="135.295" y2="-3.5" transform="matrix(0.846275 0.532746 0.516855 -0.856073 4 74.8975)" stroke="#2ED573" stroke-width="7"/>
<line y1="-3.5" x2="119.364" y2="-3.5" transform="matrix(0.845193 0.534462 0.520813 -0.853671 4.92761 88.0449)" stroke="#2ED573" stroke-width="7"/>
<line opacity="0.5" y1="-3.5" x2="97.8192" y2="-3.5" transform="matrix(0.846982 0.531621 0.517002 -0.855984 8.36255 102.585)" stroke="#2ED573" stroke-width="7"/>
<line y1="-3.5" x2="70.4546" y2="-3.5" transform="matrix(0.843945 0.53643 0.523453 -0.852055 13.7485 118.206)" stroke="#2ED573" stroke-width="7"/>
</g>
</svg>
