<svg xmlns="http://www.w3.org/2000/svg"  viewBox="0 0 48 48" width="96px" height="96px" fill-rule="evenodd" clip-rule="evenodd"><path fill="#26c6da" fill-rule="evenodd" d="M32.466 9.628L44.737 19.8 40.275 28.791 32.925 26.756 26.494 26.756z" clip-rule="evenodd"/><path fill="#66bb6a" fill-rule="evenodd" d="M30.431 9.234L20.981 3 5.559 9.431 3 36.6 17.372 45 21.244 40.472 20.062 16.256z" clip-rule="evenodd"/><path fill="#9ccc65" fill-rule="evenodd" d="M35.944 14.484L21.375 14.484 34.237 3z" clip-rule="evenodd"/><path fill="#ffee58" fill-rule="evenodd" d="M45 40.537L32.203 44.934 15.141 40.144 20.063 16.256 22.031 14.484 32.466 13.5 31.481 23.934 39.75 20.719z" clip-rule="evenodd"/><path fill="#212121" fill-rule="evenodd" d="M11 11H37V37H11z" clip-rule="evenodd"/><path fill="#fff" fill-rule="evenodd" d="M14 33H24V35H14zM14.075 14h4.633C21.433 14 23 15.533 23 17.8l0 0c0 2.533-2.044 3.867-4.565 3.867h-1.908V25h-2.453V14L14.075 14 14.075 14zM20.479 17.933L20.479 17.933c0-1.067-.749-1.667-2.044-1.667h-1.908v3.4h1.976C19.842 19.667 20.479 18.867 20.479 17.933zM24.819 19.501L24.819 19.501c-.033-1.468.536-2.886 1.575-3.925 1.038-1.038 2.456-1.607 3.925-1.575 1.982 0 3.197.639 4.156 1.663l-1.471 1.727c-.831-.767-1.663-1.215-2.686-1.215-1.79 0-3.069 1.471-3.069 3.325l0 0c0 1.79 1.279 3.325 3.069 3.325 1.215 0 1.982-.512 2.814-1.215l1.471 1.471C33.515 24.233 32.3 25 30.254 25c-1.453 0-2.845-.581-3.866-1.615C25.367 22.352 24.802 20.953 24.819 19.501" clip-rule="evenodd"/></svg>