<svg width="1545" height="1008" viewBox="0 0 1545 1008" fill="none" xmlns="http://www.w3.org/2000/svg">
<g filter="url(#filter0_d_796_8)">
<path d="M717.216 513.749C716.249 514.734 716.263 516.317 717.249 517.284C718.234 518.251 719.817 518.237 720.784 517.251L717.216 513.749ZM464 214.5L461.531 214.107L461.144 216.538L463.569 216.962L464 214.5ZM14.8427 5.93521C16.2171 5.80377 17.2248 4.583 17.0933 3.20856C16.9619 1.83412 15.7411 0.826476 14.3667 0.957924L14.8427 5.93521ZM34.5047 0.207504C33.124 0.211054 32.0076 1.33322 32.0112 2.71392C32.0147 4.09463 33.1369 5.21104 34.5176 5.20749L34.5047 0.207504ZM54.5704 5.54108C55.9503 5.58639 57.1057 4.50444 57.1511 3.12447C57.1964 1.74451 56.1144 0.589087 54.7344 0.543773L54.5704 5.54108ZM74.6967 1.45265C73.3183 1.3737 72.1368 2.42715 72.0579 3.8056C71.9789 5.18406 73.0324 6.36552 74.4108 6.44447L74.6967 1.45265ZM94.2502 7.78902C95.6268 7.89621 96.8296 6.8672 96.9368 5.49065C97.044 4.11411 96.015 2.9113 94.6384 2.80411L94.2502 7.78902ZM114.587 4.54864C113.213 4.41551 111.991 5.42167 111.858 6.79594C111.725 8.17022 112.731 9.39222 114.105 9.52535L114.587 4.54864ZM133.937 11.6296C135.309 11.7878 136.549 10.8041 136.707 9.43247C136.866 8.06085 135.882 6.82071 134.51 6.66256L133.937 11.6296ZM154.397 9.13909C153.029 8.95596 151.771 9.91691 151.588 11.2854C151.404 12.6539 152.365 13.9118 153.734 14.0949L154.397 9.13909ZM173.484 16.9245C174.849 17.1331 176.124 16.1958 176.333 14.831C176.541 13.4661 175.604 12.1905 174.239 11.9819L173.484 16.9245ZM194.024 15.2019C192.664 14.9668 191.37 15.8791 191.135 17.2396C190.9 18.6002 191.812 19.8937 193.172 20.1289L194.024 15.2019ZM212.762 23.7205C214.117 23.9836 215.429 23.0982 215.692 21.7428C215.955 20.3874 215.07 19.0753 213.715 18.8122L212.762 23.7205ZM233.32 22.8404C231.971 22.5474 230.64 23.4037 230.347 24.7529C230.054 26.1022 230.91 27.4335 232.259 27.7265L233.32 22.8404ZM251.672 32.1832C253.014 32.5085 254.365 31.6844 254.69 30.3426C255.016 29.0008 254.192 27.6493 252.85 27.3239L251.672 32.1832ZM272.273 32.3013C270.94 31.9406 269.567 32.7286 269.207 34.0614C268.846 35.3941 269.634 36.7669 270.967 37.1276L272.273 32.3013ZM290.106 42.6051C291.428 43.0049 292.823 42.2576 293.223 40.936C293.623 39.6145 292.875 38.2191 291.554 37.8193L290.106 42.6051ZM310.65 43.9358C309.343 43.4924 307.923 44.193 307.48 45.5006C307.037 46.8082 307.737 48.2277 309.045 48.671L310.65 43.9358ZM327.731 55.3937C329.021 55.8862 330.466 55.2397 330.958 53.9498C331.45 52.6599 330.804 51.215 329.514 50.7225L327.731 55.3937ZM348.096 58.2746C346.829 57.7262 345.358 58.3088 344.809 59.576C344.261 60.8431 344.843 62.3149 346.111 62.8633L348.096 58.2746ZM364.136 71.2059C365.373 71.8188 366.873 71.3127 367.486 70.0754C368.099 68.8382 367.593 67.3384 366.356 66.7255L364.136 71.2059ZM384.127 76.1976C382.93 75.51 381.402 75.9231 380.714 77.1204C380.027 78.3178 380.44 79.8458 381.637 80.5334L384.127 76.1976ZM398.432 90.9981C399.575 91.7727 401.13 91.474 401.904 90.331C402.679 89.1881 402.38 87.6336 401.237 86.859L398.432 90.9981ZM417.435 98.9079C416.368 98.0326 414.792 98.1886 413.917 99.2564C413.042 100.324 413.198 101.899 414.266 102.775L417.435 98.9079ZM428.775 116.045C429.737 117.035 431.32 117.056 432.31 116.094C433.299 115.131 433.321 113.548 432.358 112.558L428.775 116.045ZM445.495 128C444.677 126.887 443.113 126.648 442 127.466C440.887 128.283 440.648 129.848 441.466 130.961L445.495 128ZM451.741 147.596C452.365 148.828 453.869 149.321 455.101 148.697C456.333 148.073 456.826 146.569 456.202 145.337L451.741 147.596ZM463.713 164.279C463.326 162.954 461.938 162.193 460.612 162.581C459.287 162.968 458.527 164.356 458.914 165.681L463.713 164.279ZM462.573 184.753C462.706 186.127 463.927 187.134 465.301 187.002C466.676 186.87 467.683 185.648 467.55 184.274L462.573 184.753ZM467.695 204.6C467.803 203.224 466.775 202.02 465.398 201.912C464.022 201.804 462.818 202.833 462.71 204.209L467.695 204.6ZM473.535 218.747C474.893 218.996 476.195 218.096 476.444 216.738C476.693 215.38 475.793 214.078 474.435 213.829L473.535 218.747ZM494.116 217.593C492.762 217.323 491.445 218.201 491.175 219.555C490.904 220.909 491.783 222.226 493.137 222.497L494.116 217.593ZM512.712 226.581C514.062 226.874 515.393 226.019 515.687 224.67C515.981 223.321 515.126 221.989 513.777 221.695L512.712 226.581ZM533.437 226.172C532.094 225.852 530.746 226.682 530.427 228.025C530.107 229.368 530.937 230.716 532.28 231.036L533.437 226.172ZM551.715 235.869C553.051 236.217 554.416 235.415 554.763 234.079C555.111 232.742 554.309 231.378 552.973 231.03L551.715 235.869ZM572.378 236.31C571.05 235.932 569.668 236.702 569.29 238.03C568.912 239.358 569.682 240.741 571.01 241.119L572.378 236.31ZM590.154 246.828C591.472 247.24 592.874 246.505 593.286 245.187C593.697 243.869 592.963 242.467 591.645 242.055L590.154 246.828ZM610.756 248.322C609.45 247.873 608.027 248.567 607.578 249.873C607.129 251.178 607.823 252.601 609.128 253.05L610.756 248.322ZM627.902 259.848C629.193 260.339 630.637 259.692 631.129 258.401C631.62 257.111 630.973 255.667 629.682 255.175L627.902 259.848ZM648.382 262.691C647.111 262.152 645.643 262.745 645.104 264.016C644.565 265.287 645.158 266.755 646.429 267.294L648.382 262.691ZM664.637 275.477C665.884 276.071 667.376 275.542 667.969 274.295C668.563 273.049 668.034 271.557 666.788 270.963L664.637 275.477ZM684.801 280.099C683.586 279.443 682.069 279.895 681.412 281.109C680.756 282.324 681.208 283.841 682.423 284.497L684.801 280.099ZM699.635 294.472C700.807 295.201 702.349 294.843 703.078 293.67C703.808 292.498 703.449 290.956 702.277 290.227L699.635 294.472ZM719.01 301.492C717.895 300.677 716.331 300.921 715.517 302.036C714.702 303.151 714.946 304.715 716.061 305.53L719.01 301.492ZM731.568 317.949C732.603 318.862 734.183 318.764 735.097 317.729C736.01 316.694 735.912 315.114 734.877 314.2L731.568 317.949ZM749.339 328.47C748.416 327.443 746.835 327.359 745.809 328.282C744.782 329.205 744.698 330.786 745.621 331.812L749.339 328.47ZM757.727 347.336C758.492 348.485 760.044 348.797 761.194 348.032C762.343 347.267 762.655 345.715 761.89 344.566L757.727 347.336ZM771.707 362.49C771.157 361.223 769.684 360.643 768.418 361.193C767.152 361.743 766.571 363.216 767.121 364.482L771.707 362.49ZM773.066 383.071C773.348 384.423 774.672 385.29 776.024 385.008C777.375 384.725 778.242 383.401 777.96 382.049L773.066 383.071ZM780.012 402.477C780.018 401.097 778.904 399.972 777.524 399.966C776.143 399.959 775.018 401.073 775.012 402.454L780.012 402.477ZM772.988 421.866C772.716 423.22 773.593 424.538 774.946 424.81C776.3 425.082 777.618 424.205 777.89 422.852L772.988 421.866ZM772.171 442.526C772.66 441.234 772.009 439.791 770.718 439.302C769.427 438.814 767.984 439.464 767.495 440.755L772.171 442.526ZM759.312 458.614C758.659 459.831 759.116 461.346 760.333 461.999C761.55 462.651 763.065 462.194 763.718 460.978L759.312 458.614ZM753.119 478.4C753.895 477.258 753.598 475.703 752.456 474.927C751.314 474.151 749.759 474.448 748.983 475.59L753.119 478.4ZM737.179 491.454C736.312 492.528 736.479 494.102 737.553 494.97C738.627 495.837 740.201 495.67 741.069 494.596L737.179 491.454ZM727.846 509.847C728.784 508.834 728.723 507.252 727.709 506.314C726.696 505.377 725.114 505.438 724.176 506.451L727.846 509.847ZM9.00814 4.21228C8.73246 4.0908 8.65587 4.02838 8.6842 4.05049C8.70331 4.06541 8.79198 4.13627 8.8972 4.27419C9.00437 4.41467 9.15782 4.6637 9.23749 5.01909C9.43296 5.89104 9.03696 6.5559 8.77348 6.83912C8.57248 7.05518 8.43329 7.08646 8.5942 7.01403C8.88478 6.88322 9.52835 6.68747 10.6549 6.48141C11.7396 6.28302 13.136 6.09844 14.8427 5.93521L14.3667 0.957924C12.5761 1.12917 11.0278 1.33025 9.75528 1.56301C8.52465 1.78811 7.3985 2.06902 6.54176 2.4547C6.12901 2.6405 5.57176 2.93998 5.11266 3.43348C4.59107 3.99415 4.09693 4.94569 4.35859 6.11285C4.57761 7.08984 5.22545 7.6936 5.60776 7.99201C6.03528 8.3257 6.52657 8.58267 6.99182 8.7877L9.00814 4.21228ZM34.5176 5.20749C40.4093 5.19234 47.1332 5.29687 54.5704 5.54108L54.7344 0.543773C47.2469 0.297909 40.4633 0.192184 34.5047 0.207504L34.5176 5.20749ZM74.4108 6.44447C80.7077 6.80512 87.337 7.25067 94.2502 7.78902L94.6384 2.80411C87.6915 2.26315 81.0282 1.81528 74.6967 1.45265L74.4108 6.44447ZM114.105 9.52535C120.545 10.1492 127.167 10.8489 133.937 11.6296L134.51 6.66256C127.709 5.87831 121.057 5.17541 114.587 4.54864L114.105 9.52535ZM153.734 14.0949C160.224 14.9635 166.816 15.9053 173.484 16.9245L174.239 11.9819C167.54 10.9579 160.918 10.0116 154.397 9.13909L153.734 14.0949ZM193.172 20.1289C199.663 21.2507 206.2 22.4467 212.762 23.7205L213.715 18.8122C207.118 17.5316 200.547 16.3294 194.024 15.2019L193.172 20.1289ZM232.259 27.7265C238.734 29.1326 245.212 30.617 251.672 32.1832L252.85 27.3239C246.349 25.7479 239.833 24.2545 233.32 22.8404L232.259 27.7265ZM270.967 37.1276C277.393 38.8668 283.78 40.6915 290.106 42.6051L291.554 37.8193C285.178 35.8907 278.744 34.0526 272.273 32.3013L270.967 37.1276ZM309.045 48.671C315.367 50.8145 321.603 53.0542 327.731 55.3937L329.514 50.7225C323.324 48.3592 317.028 46.0983 310.65 43.9358L309.045 48.671ZM346.111 62.8633C352.272 65.5301 358.289 68.3096 364.136 71.2059L366.356 66.7255C360.427 63.7885 354.331 60.973 348.096 58.2746L346.111 62.8633ZM381.637 80.5334C387.471 83.8838 393.08 87.3706 398.432 90.9981L401.237 86.859C395.774 83.1565 390.06 79.6046 384.127 76.1976L381.637 80.5334ZM414.266 102.775C419.454 107.028 424.303 111.449 428.775 116.045L432.358 112.558C427.745 107.817 422.756 103.269 417.435 98.9079L414.266 102.775ZM441.466 130.961C445.386 136.296 448.826 141.838 451.741 147.596L456.202 145.337C453.155 139.319 449.567 133.542 445.495 128L441.466 130.961ZM458.914 165.681C460.703 171.809 461.939 178.163 462.573 184.753L467.55 184.274C466.886 177.37 465.591 170.707 463.713 164.279L458.914 165.681ZM462.71 204.209C462.456 207.454 462.065 210.753 461.531 214.107L466.469 214.893C467.023 211.411 467.43 207.98 467.695 204.6L462.71 204.209ZM463.569 216.962C466.916 217.549 470.238 218.144 473.535 218.747L474.435 213.829C471.126 213.223 467.791 212.626 464.431 212.037L463.569 216.962ZM493.137 222.497C499.772 223.821 506.297 225.183 512.712 226.581L513.777 221.695C507.332 220.291 500.778 218.924 494.116 217.593L493.137 222.497ZM532.28 231.036C538.885 232.607 545.364 234.218 551.715 235.869L552.973 231.03C546.587 229.37 540.075 227.75 533.437 226.172L532.28 231.036ZM571.01 241.119C577.54 242.977 583.922 244.881 590.154 246.828L591.645 242.055C585.371 240.095 578.948 238.18 572.378 236.31L571.01 241.119ZM609.128 253.05C615.566 255.266 621.824 257.532 627.902 259.848L629.682 255.175C623.551 252.839 617.242 250.555 610.756 248.322L609.128 253.05ZM646.429 267.294C652.721 269.964 658.791 272.692 664.637 275.477L666.788 270.963C660.873 268.145 654.737 265.388 648.382 262.691L646.429 267.294ZM682.423 284.497C688.447 287.754 694.185 291.08 699.635 294.472L702.277 290.227C696.735 286.778 690.908 283.401 684.801 280.099L682.423 284.497ZM716.061 305.53C721.617 309.588 726.787 313.729 731.568 317.949L734.877 314.2C729.972 309.871 724.681 305.634 719.01 301.492L716.061 305.53ZM745.621 331.812C750.185 336.891 754.222 342.067 757.727 347.336L761.89 344.566C758.24 339.081 754.053 333.714 749.339 328.47L745.621 331.812ZM767.121 364.482C769.765 370.567 771.748 376.765 773.066 383.071L777.96 382.049C776.571 375.399 774.482 368.877 771.707 362.49L767.121 364.482ZM775.012 402.454C774.982 408.814 774.312 415.286 772.988 421.866L777.89 422.852C779.274 415.969 779.98 409.174 780.012 402.477L775.012 402.454ZM767.495 440.755C765.271 446.63 762.547 452.584 759.312 458.614L763.718 460.978C767.048 454.77 769.865 448.618 772.171 442.526L767.495 440.755ZM748.983 475.59C745.423 480.829 741.491 486.118 737.179 491.454L741.069 494.596C745.46 489.16 749.476 483.76 753.119 478.4L748.983 475.59ZM724.176 506.451C721.933 508.875 719.613 511.307 717.216 513.749L720.784 517.251C723.214 514.776 725.568 512.308 727.846 509.847L724.176 506.451Z" fill="#FF6348" fill-opacity="0.5"/>
<path d="M827.577 974.289L827.048 976.732L827.577 974.289ZM702.971 524.269C703.927 523.273 705.509 523.24 706.506 524.196C707.502 525.152 707.535 526.734 706.579 527.731L702.971 524.269ZM1529.83 998.227C1528.45 998.062 1527.48 996.817 1527.64 995.446C1527.81 994.075 1529.05 993.098 1530.42 993.263L1529.83 998.227ZM1510.66 991.072C1512.03 991.211 1513.03 992.438 1512.89 993.811C1512.75 995.185 1511.53 996.186 1510.15 996.046L1510.66 991.072ZM1490.44 994.228C1489.06 994.113 1488.04 992.905 1488.16 991.529C1488.27 990.153 1489.48 989.13 1490.86 989.245L1490.44 994.228ZM1471.03 987.765C1472.41 987.856 1473.45 989.047 1473.36 990.424C1473.27 991.802 1472.08 992.845 1470.7 992.754L1471.03 987.765ZM1450.92 991.608C1449.54 991.539 1448.48 990.365 1448.55 988.986C1448.62 987.607 1449.79 986.545 1451.17 986.614L1450.92 991.608ZM1431.3 985.773C1432.68 985.821 1433.76 986.979 1433.71 988.358C1433.66 989.738 1432.5 990.818 1431.12 990.77L1431.3 985.773ZM1411.31 990.22C1409.93 990.191 1408.84 989.049 1408.87 987.668C1408.9 986.288 1410.04 985.192 1411.42 985.221L1411.31 990.22ZM1391.54 984.935C1392.92 984.946 1394.03 986.075 1394.02 987.455C1394.01 988.836 1392.88 989.946 1391.5 989.935L1391.54 984.935ZM1371.68 989.891C1370.3 989.896 1369.18 988.781 1369.17 987.4C1369.17 986.019 1370.28 984.896 1371.66 984.891L1371.68 989.891ZM1351.79 985.064C1353.17 985.045 1354.31 986.149 1354.33 987.529C1354.35 988.91 1353.24 990.044 1351.86 990.063L1351.79 985.064ZM1332.04 990.425C1330.66 990.456 1329.52 989.362 1329.49 987.982C1329.45 986.602 1330.55 985.457 1331.93 985.426L1332.04 990.425ZM1312.07 985.952C1313.45 985.91 1314.6 986.995 1314.65 988.375C1314.69 989.756 1313.6 990.908 1312.22 990.95L1312.07 985.952ZM1292.4 991.609C1291.02 991.659 1289.86 990.581 1289.81 989.201C1289.76 987.821 1290.84 986.662 1292.22 986.612L1292.4 991.609ZM1272.38 987.38C1273.76 987.323 1274.92 988.396 1274.98 989.776C1275.03 991.155 1273.96 992.319 1272.58 992.376L1272.38 987.38ZM1252.76 993.22C1251.38 993.281 1250.21 992.212 1250.15 990.833C1250.09 989.453 1251.16 988.286 1252.54 988.225L1252.76 993.22ZM1232.7 989.118C1234.08 989.055 1235.25 990.122 1235.32 991.501C1235.38 992.881 1234.31 994.05 1232.93 994.113L1232.7 989.118ZM1213.11 995.026C1211.73 995.089 1210.56 994.022 1210.49 992.643C1210.43 991.264 1211.5 990.094 1212.88 990.031L1213.11 995.026ZM1193.05 990.933C1194.43 990.871 1195.6 991.939 1195.66 993.318C1195.72 994.698 1194.66 995.866 1193.28 995.928L1193.05 990.933ZM1173.44 996.79C1172.06 996.847 1170.9 995.776 1170.84 994.397C1170.78 993.017 1171.85 991.852 1173.23 991.794L1173.44 996.79ZM1153.41 992.585C1154.79 992.533 1155.95 993.61 1156 994.989C1156.05 996.369 1154.98 997.53 1153.6 997.582L1153.41 992.585ZM1133.75 998.275C1132.37 998.319 1131.21 997.236 1131.17 995.856C1131.13 994.476 1132.21 993.321 1133.59 993.277L1133.75 998.275ZM1113.77 993.841C1115.15 993.807 1116.29 994.898 1116.33 996.278C1116.36 997.659 1115.27 998.805 1113.89 998.839L1113.77 993.841ZM1094.02 999.246C1092.64 999.268 1091.51 998.167 1091.48 996.787C1091.46 995.406 1092.56 994.269 1093.94 994.247L1094.02 999.246ZM1074.12 994.468C1075.5 994.459 1076.63 995.572 1076.63 996.953C1076.64 998.333 1075.53 999.459 1074.15 999.468L1074.12 994.468ZM1054.27 999.475C1052.89 999.468 1051.78 998.342 1051.79 996.962C1051.79 995.581 1052.92 994.468 1054.3 994.475L1054.27 999.475ZM1034.49 994.244C1035.87 994.269 1036.97 995.408 1036.94 996.789C1036.92 998.169 1035.78 999.268 1034.4 999.243L1034.49 994.244ZM1014.52 998.744C1013.14 998.7 1012.06 997.545 1012.11 996.165C1012.15 994.785 1013.3 993.702 1014.68 993.747L1014.52 998.744ZM994.894 992.961C996.273 993.026 997.339 994.197 997.273 995.576C997.208 996.956 996.037 998.021 994.657 997.955L994.894 992.961ZM974.802 996.852C973.424 996.764 972.379 995.576 972.467 994.198C972.555 992.82 973.743 991.775 975.121 991.863L974.802 996.852ZM955.37 990.431C956.746 990.543 957.771 991.749 957.659 993.125C957.547 994.501 956.341 995.526 954.965 995.414L955.37 990.431ZM935.151 993.621C933.777 993.484 932.774 992.259 932.911 990.885C933.049 989.511 934.274 988.509 935.648 988.646L935.151 993.621ZM915.96 986.49C917.331 986.653 918.31 987.897 918.146 989.268C917.983 990.639 916.739 991.618 915.368 991.455L915.96 986.49ZM895.623 988.899C894.255 988.708 893.302 987.445 893.493 986.077C893.684 984.71 894.947 983.756 896.315 983.947L895.623 988.899ZM876.745 981.008C878.108 981.227 879.036 982.51 878.816 983.873C878.597 985.236 877.314 986.164 875.951 985.944L876.745 981.008ZM856.351 982.579C854.993 982.331 854.093 981.029 854.341 979.671C854.589 978.313 855.891 977.413 857.25 977.661L856.351 982.579ZM837.828 973.896C839.18 974.173 840.052 975.495 839.774 976.847C839.497 978.2 838.175 979.071 836.823 978.794L837.828 973.896ZM817.338 974.447C816 974.107 815.191 972.746 815.532 971.408C815.872 970.07 817.233 969.261 818.571 969.602L817.338 974.447ZM800.151 964.176C801.459 964.617 802.162 966.035 801.722 967.343C801.281 968.652 799.863 969.355 798.554 968.915L800.151 964.176ZM780.25 961.903C778.982 961.355 778.398 959.884 778.946 958.616C779.494 957.349 780.965 956.765 782.233 957.313L780.25 961.903ZM764.975 948.931C766.189 949.59 766.638 951.108 765.979 952.321C765.32 953.534 763.802 953.984 762.589 953.325L764.975 948.931ZM745.773 943.137C744.627 942.366 744.324 940.812 745.095 939.667C745.867 938.522 747.42 938.219 748.565 938.99L745.773 943.137ZM733.198 927.504C734.261 928.385 734.41 929.961 733.53 931.024C732.649 932.088 731.073 932.237 730.01 931.356L733.198 927.504ZM715.492 918.064C714.521 917.082 714.531 915.5 715.513 914.529C716.495 913.558 718.078 913.568 719.048 914.55L715.492 918.064ZM706.253 900.253C707.122 901.326 706.957 902.9 705.885 903.77C704.812 904.639 703.238 904.474 702.368 903.401L706.253 900.253ZM690.731 887.546C689.968 886.396 690.281 884.844 691.432 884.08C692.582 883.317 694.133 883.63 694.897 884.781L690.731 887.546ZM685.01 868.315C685.668 869.529 685.217 871.046 684.003 871.704C682.789 872.361 681.271 871.91 680.614 870.696L685.01 868.315ZM671.998 853.046C671.444 851.782 672.02 850.307 673.284 849.753C674.549 849.199 676.023 849.775 676.577 851.04L671.998 853.046ZM669.548 833.127C670.003 834.431 669.316 835.856 668.012 836.312C666.709 836.767 665.283 836.079 664.828 834.776L669.548 833.127ZM659.026 816.04C658.664 814.707 659.45 813.334 660.783 812.971C662.115 812.609 663.489 813.395 663.851 814.728L659.026 816.04ZM659.404 795.969C659.68 797.322 658.806 798.642 657.453 798.918C656.1 799.193 654.78 798.32 654.505 796.967L659.404 795.969ZM651.174 777.662C650.979 776.295 651.93 775.029 653.296 774.835C654.663 774.64 655.929 775.59 656.124 776.957L651.174 777.662ZM653.932 757.777C654.051 759.152 653.033 760.364 651.658 760.484C650.282 760.603 649.07 759.585 648.95 758.21L653.932 757.777ZM647.757 738.677C647.708 737.297 648.787 736.139 650.166 736.089C651.546 736.04 652.705 737.118 652.754 738.498L647.757 738.677ZM652.53 719.18C652.514 720.561 651.381 721.666 650 721.649C648.62 721.633 647.514 720.5 647.531 719.119L652.53 719.18ZM648.217 699.582C648.297 698.204 649.479 697.151 650.858 697.231C652.236 697.31 653.289 698.492 653.209 699.871L648.217 699.582ZM654.752 680.603C654.612 681.976 653.385 682.976 652.011 682.835C650.637 682.695 649.638 681.468 649.778 680.094L654.752 680.603ZM652.191 660.676C652.391 659.31 653.66 658.365 655.026 658.565C656.393 658.765 657.338 660.034 657.138 661.4L652.191 660.676ZM660.357 642.316C660.097 643.672 658.788 644.561 657.432 644.302C656.076 644.042 655.186 642.733 655.446 641.376L660.357 642.316ZM659.554 622.24C659.874 620.897 661.223 620.068 662.566 620.389C663.909 620.709 664.738 622.058 664.417 623.401L659.554 622.24ZM669.348 604.729C668.962 606.055 667.575 606.818 666.249 606.432C664.924 606.047 664.161 604.66 664.546 603.334L669.348 604.729ZM670.49 584.747C670.947 583.444 672.373 582.758 673.676 583.216C674.979 583.673 675.665 585.1 675.207 586.402L670.49 584.747ZM682.205 568.335C681.662 569.604 680.193 570.193 678.924 569.65C677.654 569.107 677.065 567.637 677.608 566.368L682.205 568.335ZM686.046 548.727C686.7 547.511 688.216 547.055 689.432 547.709C690.648 548.363 691.104 549.879 690.45 551.095L686.046 548.727ZM700.577 534.9C699.753 536.008 698.187 536.238 697.079 535.414C695.971 534.591 695.741 533.025 696.565 531.917L700.577 534.9ZM1539.68 999.461C1536.39 999.033 1533.1 998.621 1529.83 998.227L1530.42 993.263C1533.72 993.659 1537.02 994.072 1540.32 994.502L1539.68 999.461ZM1510.15 996.046C1503.56 995.378 1496.99 994.773 1490.44 994.228L1490.86 989.245C1497.44 989.793 1504.04 990.401 1510.66 991.072L1510.15 996.046ZM1470.7 992.754C1464.09 992.317 1457.5 991.936 1450.92 991.608L1451.17 986.614C1457.77 986.944 1464.39 987.326 1471.03 987.765L1470.7 992.754ZM1431.12 990.77C1424.5 990.539 1417.9 990.357 1411.31 990.22L1411.42 985.221C1418.03 985.359 1424.65 985.541 1431.3 985.773L1431.12 990.77ZM1391.5 989.935C1384.88 989.882 1378.28 989.868 1371.68 989.891L1371.66 984.891C1378.28 984.868 1384.9 984.882 1391.54 984.935L1391.5 989.935ZM1351.86 990.063C1345.25 990.154 1338.64 990.276 1332.04 990.425L1331.93 985.426C1338.54 985.277 1345.16 985.154 1351.79 985.064L1351.86 990.063ZM1312.22 990.95C1305.61 991.149 1299 991.37 1292.4 991.609L1292.22 986.612C1298.83 986.373 1305.45 986.151 1312.07 985.952L1312.22 990.95ZM1272.58 992.376C1265.97 992.646 1259.36 992.929 1252.76 993.22L1252.54 988.225C1259.14 987.934 1265.76 987.65 1272.38 987.38L1272.58 992.376ZM1232.93 994.113C1226.32 994.416 1219.71 994.722 1213.11 995.026L1212.88 990.031C1219.48 989.727 1226.09 989.421 1232.7 989.118L1232.93 994.113ZM1193.28 995.928C1186.67 996.223 1180.05 996.512 1173.44 996.79L1173.23 991.794C1179.84 991.517 1186.45 991.228 1193.05 990.933L1193.28 995.928ZM1153.6 997.582C1146.99 997.831 1140.37 998.063 1133.75 998.275L1133.59 993.277C1140.2 993.066 1146.81 992.834 1153.41 992.585L1153.6 997.582ZM1113.89 998.839C1107.27 999.003 1100.65 999.14 1094.02 999.246L1093.94 994.247C1100.56 994.141 1107.16 994.004 1113.77 993.841L1113.89 998.839ZM1074.15 999.468C1067.53 999.507 1060.91 999.511 1054.27 999.475L1054.3 994.475C1060.92 994.511 1067.52 994.507 1074.12 994.468L1074.15 999.468ZM1034.4 999.243C1027.78 999.123 1021.16 998.958 1014.52 998.744L1014.68 993.747C1021.3 993.96 1027.9 994.124 1034.49 994.244L1034.4 999.243ZM994.657 997.955C988.054 997.642 981.436 997.276 974.802 996.852L975.121 991.863C981.726 992.284 988.317 992.649 994.894 992.961L994.657 997.955ZM954.965 995.414C948.377 994.879 941.772 994.282 935.151 993.621L935.648 988.646C942.238 989.304 948.812 989.897 955.37 990.431L954.965 995.414ZM915.368 991.455C908.805 990.671 902.223 989.821 895.623 988.899L896.315 983.947C902.881 984.864 909.43 985.711 915.96 986.49L915.368 991.455ZM875.951 985.944C869.438 984.897 862.905 983.777 856.351 982.579L857.25 977.661C863.768 978.852 870.266 979.966 876.745 981.008L875.951 985.944ZM836.823 978.794C833.57 978.126 830.312 977.439 827.048 976.732L828.106 971.846C831.352 972.549 834.593 973.232 837.828 973.896L836.823 978.794ZM827.048 976.732C823.757 976.019 820.521 975.257 817.338 974.447L818.571 969.602C821.695 970.397 824.874 971.145 828.106 971.846L827.048 976.732ZM798.554 968.915C792.218 966.78 786.119 964.439 780.25 961.903L782.233 957.313C787.973 959.793 793.943 962.085 800.151 964.176L798.554 968.915ZM762.589 953.325C756.722 950.139 751.119 946.737 745.773 943.137L748.565 938.99C753.78 942.501 759.246 945.82 764.975 948.931L762.589 953.325ZM730.01 931.356C724.895 927.123 720.06 922.686 715.492 918.064L719.048 914.55C723.5 919.055 728.213 923.379 733.198 927.504L730.01 931.356ZM702.368 903.401C698.221 898.283 694.346 892.991 690.731 887.546L694.897 884.781C698.427 890.097 702.208 895.261 706.253 900.253L702.368 903.401ZM680.614 870.696C677.495 864.938 674.627 859.048 671.998 853.046L676.577 851.04C679.153 856.919 681.96 862.684 685.01 868.315L680.614 870.696ZM664.828 834.776C662.675 828.613 660.745 822.361 659.026 816.04L663.851 814.728C665.54 820.94 667.436 827.08 669.548 833.127L664.828 834.776ZM654.505 796.967C653.203 790.573 652.096 784.131 651.174 777.662L656.124 776.957C657.033 783.332 658.122 789.676 659.404 795.969L654.505 796.967ZM648.95 758.21C648.384 751.7 647.99 745.183 647.757 738.677L652.754 738.498C652.984 744.922 653.373 751.355 653.932 757.777L648.95 758.21ZM647.531 719.119C647.61 712.567 647.843 706.048 648.217 699.582L653.209 699.871C652.839 706.263 652.609 712.706 652.53 719.18L647.531 719.119ZM649.778 680.094C650.449 673.535 651.257 667.054 652.191 660.676L657.138 661.4C656.215 667.708 655.415 674.116 654.752 680.603L649.778 680.094ZM655.446 641.376C656.695 634.847 658.07 628.459 659.554 622.24L664.417 623.401C662.951 629.546 661.592 635.86 660.357 642.316L655.446 641.376ZM664.546 603.334C666.421 596.885 668.409 590.677 670.49 584.747L675.207 586.402C673.158 592.243 671.198 598.364 669.348 604.729L664.546 603.334ZM677.608 566.368C680.33 560.007 683.154 554.104 686.046 548.727L690.45 551.095C687.636 556.326 684.875 562.094 682.205 568.335L677.608 566.368ZM696.565 531.917C698.682 529.07 700.821 526.511 702.971 524.269L706.579 527.731C704.596 529.798 702.59 532.193 700.577 534.9L696.565 531.917Z" fill="#FF6348" fill-opacity="0.5"/>
</g>
<defs>
<filter id="filter0_d_796_8" x="0.286285" y="0.206055" width="1544.04" height="1007.29" filterUnits="userSpaceOnUse" color-interpolation-filters="sRGB">
<feFlood flood-opacity="0" result="BackgroundImageFix"/>
<feColorMatrix in="SourceAlpha" type="matrix" values="0 0 0 0 0 0 0 0 0 0 0 0 0 0 0 0 0 0 127 0" result="hardAlpha"/>
<feOffset dy="4"/>
<feGaussianBlur stdDeviation="2"/>
<feComposite in2="hardAlpha" operator="out"/>
<feColorMatrix type="matrix" values="0 0 0 0 0 0 0 0 0 0 0 0 0 0 0 0 0 0 0.25 0"/>
<feBlend mode="normal" in2="BackgroundImageFix" result="effect1_dropShadow_796_8"/>
<feBlend mode="normal" in="SourceGraphic" in2="effect1_dropShadow_796_8" result="shape"/>
</filter>
</defs>
</svg>
